# xmcd
#
# Track frame offsets:
#	150
#	11067
#	21103
#	33189
#	42778
#	58290
#	69459
#	82486
#	95327
#	108626
#	120543
#	134102
#	146320
#	159123
#	169968
#	182160
#	193841
#	207346
#	218753
#	230706
#	244688
#
# Disc length: 3414 seconds
#
# Revision: 1
# Processed by: cddbd v1.5.1PL2 Copyright (c) Steve Scherf et al.
# Submitted via: audiograbber 1.83.01
#
DISCID=350d5415
DTITLE=Various Artist - (IEDS10001-9) Cradle Of Country and Western Music
DYEAR=1955
DGENRE=Country
TTITLE0=Tennessee Ernie Ford - Tennessee Border
TTITLE1=Bill Haley - Rovin´ Eyes
TTITLE2=Hank Williams - Blues Come Around
TTITLE3=Tennessee Ernie Ford - Anticipation Blues
TTITLE4=Bill Haley - My Mom Heard Me Crying
TTITLE5=Bar X Cowboys - When Mama Goes Out
TTITLE6=Curley Williams - Southern Belle
TTITLE7=Spade Cooley - Oklahoma Stomp
TTITLE8=Lefty Frizzell - If You´ve Got The Money
TTITLE9=Billy Hughes - Cocaine Blues
TTITLE10=Tommy Sargent - Steel Guitar Boogie
TTITLE11=Boots Woodall - Rattlesnakin´ Daddy
TTITLE12=Ben Christian - Texas Cowboy Rag
TTITLE13=Johnny Hicks - Get Your Kicks
TTITLE14=L.Flatt and E.Scruggs - Don´t Get Above Your Raisin´
TTITLE15=Luke Wills - Texas Special
TTITLE16=Jimmy Heap - Dessau Waltz
TTITLE17=Texas Ruby - Don´t Let That Man Get You Down
TTITLE18=Red Foley - Tennessee Saturday Night
TTITLE19=Hank Choates - Louisiana Boogie
TTITLE20=Smiley Whitley - West Wind
EXTD=
EXTT0=
EXTT1=
EXTT2=
EXTT3=
EXTT4=
EXTT5=
EXTT6=
EXTT7=
EXTT8=
EXTT9=
EXTT10=
EXTT11=
EXTT12=
EXTT13=
EXTT14=
EXTT15=
EXTT16=
EXTT17=
EXTT18=
EXTT19=
EXTT20=
PLAYORDER=
